<?xml version="1.0" encoding="utf-8"?>
<!-- Generator: Adobe Illustrator 17.0.2, SVG Export Plug-In . SVG Version: 6.00 Build 0)  -->
<!DOCTYPE svg PUBLIC "-//W3C//DTD SVG 1.1//EN" "http://www.w3.org/Graphics/SVG/1.1/DTD/svg11.dtd">
<svg version="1.1" xmlns="http://www.w3.org/2000/svg" xmlns:xlink="http://www.w3.org/1999/xlink" x="0px" y="0px" width="1280px"
	 height="800px" viewBox="0 0 1280 800" style="enable-background:new 0 0 1280 800;" xml:space="preserve">
<g id="bt_x5F_connected">
	<polyline style="fill:#FFFFFF;" points="658,401 658,407 661,404 651,394 653,392 665,404 655,414 655,401 	"/>
	<polyline style="fill:#FFFFFF;" points="658,398 658,392 661,395 651,405 653,407 665,395 655,385 655,401 	"/>
</g>
<g id="bt_x5F_disconnected">
	<polyline style="fill:#FFFFFF;" points="636,401 636,407 639,404 636,401 638,399 643,404 633,414 633,404 626,411 624,409 
		645,388 647,390 638,399 	"/>
	<polyline style="fill:#FFFFFF;" points="637,393 636,392 636,394 633,397 633,385 639,391 	"/>
</g>
<g id="bt_x5F_connected_x5F_small">
	<polyline style="fill:#FFFFFF;" points="624,427 624,424 622,426 621,425 624,422 621,419 622,418 624,420 624,417 625,417 
		625,421 627,419 624.999,416.999 624,417 624,414 629,419 626,422 629,425 628,426 625,423 625,427 627,425 628,426 624,430 
		624,429 	"/>
</g>
<g id="bt_x5F_disconnected_x5F_small">
	<polyline style="fill:#FFFFFF;" points="610,421 608,419 609,418 611,420 611,417 612,417 612,419 613,418 611.999,416.999 
		611,417 611,414 614,417 	"/>
	<polyline style="fill:#FFFFFF;" points="614,421 618,417 617,416 611,422 607,426 608,427 611,424 611,427 611,429 611,430 
		615,426 614,425 612,427 612,423 615,426 616,425 613,422 616,419 	"/>
</g>
<g id="battery_x5F_small">
	<polyline style="fill:#FFFFFF;" points="643,429 643,423 653,423 653,425 654,425 654,427 653,427 653,429 643,429 644,428 
		652,428 652,424 644,424 644,428 	"/>
</g>
<g id="battery_x5F_large">
	<polygon style="fill:#FFFFFF;" points="629,360 629,350 649,350 649,354 651,354.001 651,358 649,358 649,362 629,362 629,360 
		631,360 647,360 647,352 631,352 631,360 	"/>
</g>
</svg>
