<?xml version="1.0" encoding="utf-8"?>
<!-- Generator: Adobe Illustrator 17.0.2, SVG Export Plug-In . SVG Version: 6.00 Build 0)  -->
<!DOCTYPE svg PUBLIC "-//W3C//DTD SVG 1.1//EN" "http://www.w3.org/Graphics/SVG/1.1/DTD/svg11.dtd">
<svg version="1.1" id="Layer_2" xmlns="http://www.w3.org/2000/svg" xmlns:xlink="http://www.w3.org/1999/xlink" x="0px" y="0px"
	 width="144px" height="168px" viewBox="0 0 144 168" style="enable-background:new 0 0 144 168;" xml:space="preserve">
<rect style="fill:#FFFFFF;" width="144" height="168"/>
<g>
	<g>
		<g id="XMLID_7_">
			<g>
				<g>
					<path style="fill:#ccc;" d="M258-78c-3,8-6,14-11,21c-3,3-5,6-7,9c-4,4-8,8-12,12c-3,2-6,4-9,7c-19,14-41,18-64,19
						c-47,4-80,49-83,94c-1-21,1-42,9-62c2-4,3-7,5-11c11-22,29-39,51-49c23-11,47-19,61-42c8-14,14-30,14-46C230-113,246-97,258-78
						L258-78z"/>
				</g>
				<g>
					<path style="fill:#ccc;" d="M313,30c-14,12-31,20-49,26c-10,3-19,3-29,4c-8,0-15-1-23-2c-10-2-20-6-30-9c-3-1-6-3-9-4
						c-38-14-81,6-101,39c15-36,48-67,88-71c4,0,7-1,11-1c24,3,48,10,72,2c5-2,9-4,14-6c7-5,14-9,21-15c7-7,12-14,18-22
						C302-9,310,9,313,30L313,30z"/>
				</g>
				<g>
					<path style="fill:#ccc;" d="M72,84c11-7,23-13,36-16c4-1,9-2,13-3c26-4,51,0,74,12c10,6,20,12,30,19c17,11,35,16,54,10
						c4-1,9-2,13-3c7-2,12-7,18-9c5-2,7-7,12-10c1,24-3,47-10,70c-34,13-76,8-102-19c-2-3-5-5-7-7c-11-19-24-36-44-45c-3-1-6-3-10-4
						c-5-1-10-3-15-4c-15-2-30,0-45,3C83,80,78,82,72,84L72,84z"/>
				</g>
				<g>
					<path style="fill:#ccc;" d="M282,224c-13,18-29,34-48,46c-8-3-14-6-21-11c-3-3-6-5-9-7c-4-4-8-8-12-12c-2-3-4-6-7-9
						c-14-19-18-41-19-64c-4-47-49-80-94-83c21-1,42,1,62,9c4,2,7,3,11,5c22,11,39,29,49,51c11,23,19,47,42,61
						C250,218,266,224,282,224L282,224z"/>
				</g>
				<g>
					<path style="fill:#ccc;" d="M185,308c-20,6-38,14-59,17c-12-14-20-31-26-49c-3-10-3-19-4-29c0-8,1-15,2-23c2-10,6-20,9-30
						c1-3,3-6,4-9c14-38-6-81-39-101c36,15,67,48,71,88c0,4,1,7,1,11c-3,24-10,48-2,72c2,5,4,9,6,14c5,7,9,14,15,21
						C170,297,177,302,185,308L185,308z"/>
				</g>
				<g>
					<path style="fill:#ccc;" d="M72,84c7,11,13,23,16,36c1,4,2,9,3,13c4,26,0,51-12,74c-6,10-12,20-19,30c-11,17-16,35-10,54
						c1,4,2,9,3,13c2,7,7,12,9,18c2,5,7,7,10,12c-24,1-47-3-70-10c-13-34-8-76,19-102c3-2,5-5,7-7c19-11,36-24,45-44c1-3,3-6,4-10
						c1-5,3-10,4-15c2-15,0-30-3-45C76,95,74,90,72,84L72,84z"/>
				</g>
				<g>
					<path style="fill:#ccc;" d="M72,84c1,21-1,42-9,62c-2,4-3,7-5,11c-11,22-29,39-51,49c-23,11-47,19-61,42c-8,14-14,30-14,46
						c-18-13-34-29-46-48c3-8,6-14,11-21c3-3,5-6,7-9c4-4,8-8,12-12c3-2,6-4,9-7c19-14,41-18,64-19C36,174,69,129,72,84L72,84z"/>
				</g>
				<g>
					<path style="fill:#ccc;" d="M72,84c-15,36-48,67-88,71c-4,0-7,1-11,1c-24-3-48-10-72-2c-5,2-9,4-14,6c-7,5-14,9-21,15
						c-7,7-12,14-18,22c-6-20-14-38-17-59c14-12,31-20,49-26c10-3,19-3,29-4c8,0,15,1,23,2c10,2,20,6,30,9c3,1,6,3,9,4
						C9,137,52,117,72,84L72,84z"/>
				</g>
				<g>
					<path style="fill:#ccc;" d="M72,84c-11,7-23,13-36,16c-4,1-9,2-13,3c-26,4-51,0-74-12c-10-6-20-12-30-19c-17-11-35-16-54-10
						c-4,1-9,2-13,3c-7,2-12,7-18,9c-5,2-7,7-12,10c-1-24,3-47,10-70c34-13,76-8,102,19c2,3,5,5,7,7c11,19,24,36,44,45c3,1,6,3,10,4
						c5,1,10,3,15,4c15,2,30,0,45-3C61,88,66,86,72,84L72,84z"/>
				</g>
				<g>
					<path style="fill:#ccc;" d="M72,84c-21,1-42-1-62-9c-4-2-7-3-11-5c-22-11-39-29-49-51C-61-4-69-28-92-42c-14-8-30-14-46-14
						c13-18,29-34,48-46c8,3,14,6,21,11c3,3,6,5,9,7c4,4,8,8,12,12c2,3,4,6,7,9c14,19,18,41,19,64C-18,48,27,81,72,84L72,84z"/>
				</g>
				<g>
					<path style="fill:#ccc;" d="M18-157c12,14,20,31,26,49c3,10,3,19,4,29c0,8-1,15-2,23c-2,10-6,20-9,30c-1,3-3,6-4,9
						C19,21,39,64,72,84C36,69,5,36,1-4c0-4-1-7-1-11c3-24,10-48,2-72c-2-5-4-9-6-14c-5-7-9-14-15-21c-7-7-14-12-22-18
						C-21-146-3-154,18-157L18-157z"/>
				</g>
				<g>
					<path style="fill:#ccc;" d="M142-156c13,34,8,76-19,102c-3,2-5,5-7,7C97-36,80-23,71-3c-1,3-3,6-4,10c-1,5-3,10-4,15
						c-2,15,0,30,3,45c2,6,4,11,6,17c-7-11-13-23-16-36c-1-4-2-9-3-13c-4-26,0-51,12-74c6-10,12-20,19-30c11-17,16-35,10-54
						c-1-4-2-9-3-13c-2-7-7-12-9-18c-2-5-7-7-10-12C96-167,119-163,142-156L142-156z"/>
				</g>
			</g>
		</g>
	</g>
</g>
</svg>
