<?xml version="1.0" encoding="utf-8"?>
<!-- Generator: Adobe Illustrator 17.0.2, SVG Export Plug-In . SVG Version: 6.00 Build 0)  -->
<!DOCTYPE svg PUBLIC "-//W3C//DTD SVG 1.1//EN" "http://www.w3.org/Graphics/SVG/1.1/DTD/svg11.dtd">
<svg version="1.1" id="Layer_1" xmlns="http://www.w3.org/2000/svg" xmlns:xlink="http://www.w3.org/1999/xlink" x="0px" y="0px"
	 width="142.101px" height="83.136px" viewBox="0 0 142.101 83.136" style="enable-background:new 0 0 142.101 83.136;"
	 xml:space="preserve">
<g>
	<path d="M11.736,58.968c-0.769,0-1.513-0.024-2.232-0.071c-0.72-0.049-1.537-0.145-2.448-0.289
		c-0.912-0.144-1.933-0.324-3.06-0.539C2.867,57.852,1.535,57.6,0,57.312v-2.809c2.111,0.529,4.14,0.948,6.084,1.26
		c1.944,0.312,3.755,0.469,5.436,0.469c3.216,0,5.676-0.709,7.381-2.125c1.703-1.415,2.556-3.42,2.556-6.012
		c0-1.392-0.229-2.567-0.685-3.527s-1.079-1.765-1.871-2.412c-0.792-0.648-1.741-1.164-2.845-1.549
		c-1.104-0.383-2.28-0.72-3.527-1.008c-1.44-0.335-2.869-0.695-4.284-1.08c-1.417-0.384-2.7-0.96-3.853-1.728
		c-1.151-0.768-2.088-1.788-2.808-3.06c-0.72-1.271-1.08-2.963-1.08-5.076c0-3.215,1.14-5.735,3.42-7.56
		c2.279-1.824,5.437-2.736,9.468-2.736c0.672,0,1.308,0.025,1.908,0.072c0.6,0.048,1.26,0.121,1.98,0.216
		c0.72,0.097,1.535,0.228,2.447,0.396c0.912,0.168,2.017,0.396,3.312,0.684l-0.216,2.808c-2.209-0.527-4.009-0.9-5.4-1.116
		c-1.393-0.216-2.712-0.324-3.96-0.324c-3.217,0-5.688,0.648-7.416,1.944c-1.728,1.296-2.592,3.168-2.592,5.616
		c0,1.488,0.263,2.689,0.792,3.6c0.527,0.912,1.247,1.656,2.16,2.232c0.911,0.576,1.955,1.044,3.132,1.404
		c1.176,0.36,2.412,0.684,3.708,0.972c1.487,0.385,2.916,0.817,4.284,1.296c1.368,0.48,2.556,1.141,3.563,1.98
		c1.008,0.841,1.812,1.884,2.412,3.132c0.6,1.249,0.9,2.833,0.9,4.752c0,3.409-1.141,6.084-3.42,8.028
		C18.708,57.996,15.624,58.968,11.736,58.968z"/>
	<path d="M40.823,58.535c-6.576,0-9.863-3.191-9.863-9.575c0-3.696,1.163-6.479,3.491-8.353c2.328-1.872,6.084-3.047,11.269-3.528
		l9.432-0.864v-4.32c0-1.872-0.18-3.467-0.54-4.788c-0.359-1.32-0.936-2.376-1.728-3.168s-1.849-1.368-3.168-1.728
		c-1.321-0.36-2.916-0.54-4.788-0.54c-1.681,0-3.396,0.097-5.148,0.288c-1.753,0.192-3.78,0.504-6.084,0.936l-0.359-2.664
		c2.399-0.479,4.523-0.816,6.371-1.008c1.848-0.191,3.66-0.288,5.437-0.288c4.464,0,7.728,0.997,9.792,2.988
		c2.063,1.992,3.096,5.148,3.096,9.468v26.784h-2.376l-0.432-4.968h-0.288c-2.641,1.681-5.124,2.987-7.452,3.924
		C45.154,58.068,42.936,58.535,40.823,58.535z M41.256,55.8c2.062,0,4.283-0.504,6.659-1.513c2.376-1.008,4.788-2.279,7.236-3.815
		V38.664l-8.855,0.792c-2.305,0.241-4.248,0.576-5.832,1.008c-1.584,0.433-2.856,1.021-3.816,1.764
		c-0.961,0.745-1.656,1.656-2.088,2.736s-0.648,2.364-0.648,3.853C33.911,53.473,36.359,55.8,41.256,55.8z"/>
	<path d="M69.768,19.296h2.376l0.288,4.536h0.359c1.968-0.911,3.732-1.703,5.292-2.376c1.56-0.671,3-1.224,4.32-1.656
		s2.544-0.744,3.673-0.936c1.127-0.191,2.243-0.288,3.348-0.288c3.264,0,5.712,0.828,7.344,2.484
		c1.632,1.656,2.448,4.333,2.448,8.028v29.088h-2.88v-28.08c0-3.168-0.612-5.411-1.836-6.732c-1.225-1.32-3.085-1.98-5.58-1.98
		c-2.16,0-4.62,0.468-7.38,1.404c-2.761,0.936-5.725,2.221-8.893,3.852v31.536h-2.88V19.296z"/>
	<path d="M124.775,58.896c-5.137,0-9.072-1.621-11.808-4.861c-2.736-3.239-4.104-8.339-4.104-15.299
		c0-3.408,0.433-6.383,1.296-8.928c0.864-2.543,2.063-4.644,3.601-6.3c1.535-1.656,3.396-2.891,5.58-3.708
		c2.184-0.815,4.619-1.224,7.308-1.224c2.017,0,3.912,0.108,5.688,0.324c1.774,0.216,3.407,0.396,4.896,0.54V0h2.88v58.176h-2.447
		l-0.36-4.752h-0.36c-1.393,1.776-3.096,3.132-5.111,4.068C129.815,58.428,127.463,58.896,124.775,58.896z M124.92,56.16
		c1.535,0,3.035-0.228,4.5-0.685c1.463-0.456,2.771-1.091,3.924-1.907c1.151-0.816,2.088-1.775,2.808-2.881
		c0.721-1.104,1.08-2.327,1.08-3.672v-24.84c-1.488-0.24-3.121-0.443-4.896-0.612c-1.776-0.168-3.672-0.252-5.688-0.252
		c-4.656,0-8.28,1.404-10.872,4.212c-2.592,2.808-3.888,7.212-3.888,13.212c0,6.096,1.08,10.524,3.24,13.284
		C117.287,54.781,120.551,56.16,124.92,56.16z"/>
</g>
<g>
	<path d="M1.215,69.455h0.594l0.072,1.279h0.072c0.768-0.373,1.439-0.685,2.016-0.937s1.128-0.42,1.656-0.504h0.233v0.774H5.606
		c-0.563,0.071-1.154,0.236-1.772,0.494s-1.251,0.549-1.899,0.873v7.74h-0.72V69.455z"/>
	<path d="M10.719,79.338c-1.368,0-2.412-0.411-3.132-1.232c-0.72-0.822-1.08-2.02-1.08-3.592c0-1.703,0.348-3,1.044-3.888
		s1.704-1.332,3.024-1.332c1.104,0,1.935,0.366,2.493,1.098c0.558,0.732,0.837,1.788,0.837,3.168c0,0.505-0.019,0.87-0.055,1.099
		H7.245c0.06,2.664,1.248,3.996,3.563,3.996c0.42,0,0.843-0.043,1.27-0.127c0.426-0.084,0.902-0.222,1.431-0.414l0.09,0.648
		c-0.432,0.18-0.909,0.321-1.431,0.423C11.646,79.287,11.163,79.338,10.719,79.338z M10.575,69.978c-1.08,0-1.891,0.343-2.431,1.026
		s-0.84,1.691-0.899,3.023h5.958c0-1.451-0.201-2.489-0.604-3.113S11.522,69.978,10.575,69.978z"/>
	<path d="M16.354,69.455h0.575l0.091,1.135h0.071c0.396-0.229,0.756-0.426,1.08-0.594s0.624-0.307,0.9-0.414
		c0.275-0.108,0.537-0.186,0.783-0.234c0.245-0.048,0.488-0.072,0.729-0.072c1.188,0,1.938,0.457,2.25,1.368h0.072
		c0.432-0.252,0.815-0.465,1.151-0.639s0.646-0.315,0.928-0.423c0.281-0.108,0.543-0.186,0.782-0.234
		c0.24-0.048,0.48-0.072,0.721-0.072c0.815,0,1.428,0.207,1.836,0.621c0.407,0.414,0.612,1.084,0.612,2.008v7.271h-0.721v-7.02
		c0-0.793-0.15-1.354-0.45-1.684s-0.768-0.495-1.403-0.495c-0.456,0-0.954,0.111-1.494,0.333c-0.54,0.223-1.152,0.537-1.836,0.945
		v7.92h-0.72v-7.02c0-0.793-0.153-1.354-0.459-1.684c-0.307-0.33-0.771-0.495-1.396-0.495c-0.468,0-0.987,0.117-1.557,0.351
		c-0.57,0.234-1.18,0.55-1.827,0.945v7.902h-0.72V69.455z"/>
	<path d="M32.265,67.08c-0.372,0-0.558-0.191-0.558-0.576c0-0.384,0.186-0.576,0.558-0.576c0.396,0,0.594,0.192,0.594,0.576
		C32.858,66.889,32.661,67.08,32.265,67.08z M31.904,69.455h0.721v9.721h-0.721V69.455z"/>
	<path d="M34.479,78.996l3.834-4.86l-3.618-4.554v-0.127h0.811l2.646,3.349l0.648,0.847h0.054l0.648-0.847l2.592-3.349h0.81v0.127
		l-3.618,4.607l3.834,4.807v0.18h-0.756l-2.808-3.564l-0.738-0.953h-0.072l-0.72,0.953l-2.79,3.564h-0.756V78.996z"/>
	<path d="M49.167,69.455h0.611l0.09,1.117h0.072c0.348-0.42,0.78-0.741,1.296-0.963c0.516-0.223,1.11-0.334,1.782-0.334
		c1.284,0,2.265,0.402,2.943,1.207c0.678,0.803,1.017,2.063,1.017,3.779c0,1.656-0.396,2.919-1.188,3.789s-1.896,1.305-3.312,1.305
		c-0.492,0-0.96-0.023-1.404-0.072c-0.443-0.047-0.84-0.09-1.188-0.125v3.978h-0.72V69.455z M52.496,78.672
		c1.177,0,2.091-0.354,2.745-1.062c0.654-0.707,0.981-1.817,0.981-3.33c0-1.512-0.271-2.609-0.811-3.293
		c-0.54-0.685-1.355-1.026-2.447-1.026c-0.385,0-0.76,0.054-1.125,0.161c-0.366,0.109-0.693,0.262-0.981,0.459
		c-0.288,0.199-0.521,0.433-0.702,0.703c-0.18,0.27-0.27,0.566-0.27,0.891v6.3c0.348,0.048,0.75,0.093,1.206,0.136
		C51.549,78.65,52.017,78.672,52.496,78.672z"/>
	<path d="M63.152,79.338c-1.368,0-2.412-0.411-3.132-1.232c-0.72-0.822-1.08-2.02-1.08-3.592c0-1.703,0.348-3,1.044-3.888
		s1.704-1.332,3.024-1.332c1.104,0,1.935,0.366,2.493,1.098c0.558,0.732,0.837,1.788,0.837,3.168c0,0.505-0.019,0.87-0.055,1.099
		h-6.605c0.06,2.664,1.248,3.996,3.563,3.996c0.42,0,0.843-0.043,1.27-0.127c0.426-0.084,0.902-0.222,1.431-0.414l0.09,0.648
		c-0.432,0.18-0.909,0.321-1.431,0.423C64.079,79.287,63.597,79.338,63.152,79.338z M63.009,69.978c-1.08,0-1.891,0.343-2.431,1.026
		s-0.84,1.691-0.899,3.023h5.958c0-1.451-0.201-2.489-0.604-3.113S63.956,69.978,63.009,69.978z"/>
	<path d="M72.099,79.355c-0.54,0-1.104-0.027-1.692-0.08c-0.588-0.055-1.134-0.129-1.638-0.226V64.632h0.72v5.94
		c0.385-0.42,0.837-0.741,1.359-0.963c0.522-0.223,1.113-0.334,1.773-0.334c1.284,0,2.269,0.402,2.952,1.207
		c0.684,0.803,1.025,2.063,1.025,3.779c0,1.656-0.396,2.916-1.188,3.78C74.618,78.906,73.515,79.344,72.099,79.355z M72.116,78.672
		c1.176,0,2.092-0.352,2.746-1.053c0.654-0.702,0.98-1.815,0.98-3.34c0-1.512-0.27-2.609-0.811-3.293
		c-0.539-0.685-1.355-1.026-2.447-1.026c-0.385,0-0.76,0.054-1.125,0.161c-0.366,0.109-0.696,0.256-0.99,0.441
		c-0.294,0.187-0.531,0.412-0.711,0.676s-0.271,0.552-0.271,0.863v6.391c0.349,0.048,0.753,0.09,1.216,0.125
		C71.165,78.654,71.637,78.672,72.116,78.672z"/>
	<path d="M82.395,79.355c-0.54,0-1.104-0.027-1.692-0.08c-0.588-0.055-1.134-0.129-1.638-0.226V64.632h0.72v5.94
		c0.384-0.42,0.837-0.741,1.359-0.963c0.521-0.223,1.112-0.334,1.772-0.334c1.284,0,2.269,0.402,2.952,1.207
		c0.685,0.803,1.026,2.063,1.026,3.779c0,1.656-0.396,2.916-1.188,3.78S83.811,79.344,82.395,79.355z M82.412,78.672
		c1.176,0,2.091-0.352,2.745-1.053c0.654-0.702,0.981-1.815,0.981-3.34c0-1.512-0.271-2.609-0.811-3.293
		c-0.54-0.685-1.356-1.026-2.448-1.026c-0.384,0-0.759,0.054-1.125,0.161c-0.366,0.109-0.695,0.256-0.989,0.441
		c-0.295,0.187-0.531,0.412-0.711,0.676c-0.181,0.264-0.271,0.552-0.271,0.863v6.391c0.348,0.048,0.753,0.09,1.215,0.125
		C81.461,78.654,81.933,78.672,82.412,78.672z"/>
	<path d="M89.433,64.632h0.72v14.544h-0.72V64.632z"/>
	<path d="M96.92,79.338c-1.367,0-2.411-0.411-3.132-1.232c-0.72-0.822-1.08-2.02-1.08-3.592c0-1.703,0.349-3,1.044-3.888
		c0.696-0.888,1.704-1.332,3.024-1.332c1.104,0,1.935,0.366,2.493,1.098c0.558,0.732,0.837,1.788,0.837,3.168
		c0,0.505-0.019,0.87-0.054,1.099h-6.606c0.06,2.664,1.248,3.996,3.564,3.996c0.42,0,0.843-0.043,1.269-0.127
		s0.903-0.222,1.431-0.414l0.091,0.648c-0.433,0.18-0.909,0.321-1.432,0.423C97.848,79.287,97.364,79.338,96.92,79.338z
		 M96.776,69.978c-1.08,0-1.89,0.343-2.43,1.026s-0.841,1.691-0.9,3.023h5.958c0-1.451-0.201-2.489-0.603-3.113
		C98.399,70.29,97.725,69.978,96.776,69.978z"/>
	<path d="M108.765,79.266c-1.645,0-2.467-0.798-2.467-2.395c0-0.924,0.291-1.619,0.873-2.088c0.582-0.467,1.521-0.762,2.817-0.881
		l2.358-0.217v-1.08c0-0.468-0.045-0.867-0.136-1.197c-0.09-0.329-0.233-0.594-0.432-0.791c-0.198-0.198-0.462-0.342-0.792-0.433
		c-0.33-0.09-0.729-0.135-1.197-0.135c-0.42,0-0.849,0.024-1.287,0.071c-0.438,0.049-0.944,0.127-1.521,0.234l-0.09-0.666
		c0.6-0.119,1.131-0.203,1.593-0.252c0.462-0.047,0.915-0.072,1.359-0.072c1.115,0,1.932,0.25,2.447,0.748s0.774,1.287,0.774,2.367
		v6.695h-0.594l-0.108-1.242h-0.072c-0.66,0.42-1.281,0.747-1.862,0.98C109.847,79.148,109.292,79.266,108.765,79.266z
		 M108.872,78.582c0.516,0,1.071-0.127,1.665-0.379s1.197-0.569,1.81-0.953v-2.952l-2.215,0.198
		c-0.575,0.061-1.062,0.144-1.458,0.252c-0.396,0.107-0.714,0.255-0.953,0.441c-0.24,0.186-0.414,0.413-0.522,0.684
		c-0.108,0.27-0.162,0.591-0.162,0.963C107.036,78,107.648,78.582,108.872,78.582z"/>
	<path d="M116,69.455h0.612l0.09,1.117h0.072c0.348-0.42,0.779-0.741,1.296-0.963c0.516-0.223,1.109-0.334,1.782-0.334
		c1.283,0,2.265,0.402,2.942,1.207c0.678,0.803,1.018,2.063,1.018,3.779c0,1.656-0.396,2.919-1.188,3.789s-1.896,1.305-3.312,1.305
		c-0.492,0-0.96-0.023-1.404-0.072c-0.444-0.047-0.84-0.09-1.188-0.125v3.978H116V69.455z M119.33,78.672
		c1.176,0,2.091-0.354,2.745-1.062c0.654-0.707,0.981-1.817,0.981-3.33c0-1.512-0.271-2.609-0.811-3.293
		c-0.54-0.685-1.356-1.026-2.448-1.026c-0.384,0-0.759,0.054-1.125,0.161c-0.366,0.109-0.692,0.262-0.98,0.459
		c-0.288,0.199-0.522,0.433-0.702,0.703c-0.18,0.27-0.27,0.566-0.27,0.891v6.3c0.348,0.048,0.749,0.093,1.206,0.136
		C118.382,78.65,118.851,78.672,119.33,78.672z"/>
	<path d="M126.313,69.455h0.612l0.09,1.117h0.072c0.348-0.42,0.779-0.741,1.296-0.963c0.516-0.223,1.109-0.334,1.782-0.334
		c1.283,0,2.265,0.402,2.942,1.207c0.678,0.803,1.018,2.063,1.018,3.779c0,1.656-0.396,2.919-1.188,3.789s-1.896,1.305-3.312,1.305
		c-0.492,0-0.96-0.023-1.404-0.072c-0.444-0.047-0.84-0.09-1.188-0.125v3.978h-0.721V69.455z M129.644,78.672
		c1.176,0,2.091-0.354,2.745-1.062c0.654-0.707,0.981-1.817,0.981-3.33c0-1.512-0.271-2.609-0.811-3.293
		c-0.54-0.685-1.356-1.026-2.448-1.026c-0.384,0-0.759,0.054-1.125,0.161c-0.366,0.109-0.692,0.262-0.98,0.459
		c-0.288,0.199-0.522,0.433-0.702,0.703c-0.18,0.27-0.27,0.566-0.27,0.891v6.3c0.348,0.048,0.749,0.093,1.206,0.136
		C128.695,78.65,129.164,78.672,129.644,78.672z"/>
	<path d="M138.933,79.374c-0.192,0-0.378-0.007-0.559-0.019c-0.18-0.012-0.384-0.035-0.611-0.072
		c-0.229-0.035-0.483-0.08-0.766-0.135c-0.282-0.054-0.615-0.117-0.999-0.188v-0.702c0.528,0.133,1.035,0.237,1.521,0.314
		c0.485,0.078,0.938,0.117,1.358,0.117c0.804,0,1.419-0.177,1.846-0.531c0.426-0.354,0.639-0.854,0.639-1.502
		c0-0.348-0.058-0.643-0.171-0.883c-0.114-0.24-0.271-0.44-0.468-0.603c-0.198-0.162-0.436-0.291-0.711-0.388
		c-0.276-0.096-0.57-0.18-0.883-0.252c-0.359-0.084-0.717-0.174-1.07-0.27c-0.354-0.096-0.676-0.24-0.963-0.432
		c-0.288-0.191-0.522-0.447-0.702-0.766c-0.181-0.317-0.271-0.74-0.271-1.269c0-0.804,0.285-1.435,0.855-1.89
		c0.569-0.457,1.358-0.685,2.367-0.685c0.167,0,0.326,0.007,0.477,0.019c0.149,0.012,0.315,0.029,0.495,0.054
		s0.384,0.058,0.612,0.099c0.228,0.043,0.504,0.1,0.827,0.172l-0.054,0.701c-0.552-0.132-1.002-0.225-1.35-0.279
		c-0.349-0.054-0.679-0.08-0.99-0.08c-0.804,0-1.422,0.162-1.854,0.485c-0.432,0.324-0.647,0.792-0.647,1.404
		c0,0.372,0.065,0.672,0.198,0.899c0.132,0.229,0.312,0.414,0.54,0.559c0.228,0.145,0.488,0.261,0.782,0.352
		c0.294,0.09,0.604,0.17,0.928,0.242c0.371,0.096,0.729,0.204,1.07,0.324c0.343,0.12,0.64,0.285,0.892,0.495
		s0.452,0.471,0.603,0.782c0.15,0.312,0.226,0.709,0.226,1.188c0,0.853-0.285,1.521-0.855,2.007S139.904,79.374,138.933,79.374z"/>
</g>
</svg>
